<?xml version="1.0" encoding="UTF-8" standalone="no"?>
<!-- Created with Inkscape (http://www.inkscape.org/) -->

<svg
   width="128.01259"
   height="128.01259"
   viewBox="0 0 33.869997 33.869997"
   version="1.1"
   id="svg1"
   sodipodi:docname="SB29-guard-chrome-icons.svg"
   inkscape:version="1.4 (86a8ad7, 2024-10-11)"
   xml:space="preserve"
   xmlns:inkscape="http://www.inkscape.org/namespaces/inkscape"
   xmlns:sodipodi="http://sodipodi.sourceforge.net/DTD/sodipodi-0.dtd"
   xmlns="http://www.w3.org/2000/svg"
   xmlns:svg="http://www.w3.org/2000/svg"><sodipodi:namedview
     id="namedview1"
     pagecolor="#505050"
     bordercolor="#eeeeee"
     borderopacity="1"
     inkscape:showpageshadow="0"
     inkscape:pageopacity="0"
     inkscape:pagecheckerboard="0"
     inkscape:deskcolor="#505050"
     inkscape:document-units="mm"
     inkscape:zoom="2.1349209"
     inkscape:cx="222.95908"
     inkscape:cy="125.76578"
     inkscape:window-width="1920"
     inkscape:window-height="991"
     inkscape:window-x="-9"
     inkscape:window-y="-9"
     inkscape:window-maximized="1"
     inkscape:current-layer="layer1"
     showgrid="false"><inkscape:page
       x="0"
       y="0"
       width="33.869995"
       height="33.869995"
       id="page5"
       margin="0"
       bleed="0"
       inkscape:label="icon-green-circle" /><inkscape:page
       x="33.869995"
       y="0"
       width="33.869995"
       height="33.869995"
       id="page2"
       margin="0"
       bleed="0"
       inkscape:label="icon-red-x" /><inkscape:page
       x="67.73999"
       y="0"
       width="33.869995"
       height="33.869995"
       id="page6"
       margin="0"
       bleed="0"
       inkscape:label="icon-orange-square"
       inkscape:export-filename="C:\Users\ricec\Desktop\icon-orange-square.png"
       inkscape:export-xdpi="95.99057"
       inkscape:export-ydpi="95.99057" /><inkscape:page
       x="0"
       y="33.869995"
       width="33.870003"
       height="33.870003"
       id="page1"
       margin="0"
       bleed="0"
       inkscape:label="icon-yellow-triangle" /><inkscape:page
       x="33.869995"
       y="33.869995"
       width="33.869999"
       height="33.869999"
       id="page4"
       margin="0"
       bleed="0"
       inkscape:label="icon-purple-diamond" /><inkscape:page
       x="67.73999"
       y="33.869999"
       width="33.869999"
       height="33.869999"
       id="page3"
       margin="0"
       bleed="0"
       inkscape:label="icon-neutral"
       inkscape:export-filename="C:\Users\ricec\icons\icons\icon-neutral128.png"
       inkscape:export-xdpi="95.99057"
       inkscape:export-ydpi="95.99057" /><inkscape:grid
       id="grid7"
       units="mm"
       originx="0"
       originy="0"
       spacingx="0.99999999"
       spacingy="0.99999999"
       empcolor="#0099e5"
       empopacity="0.30196078"
       color="#0099e5"
       opacity="0.14901961"
       empspacing="5"
       enabled="true"
       visible="false" /></sodipodi:namedview><defs
     id="defs1"><inkscape:path-effect
       effect="offset"
       id="path-effect13"
       is_visible="true"
       lpeversion="1.3"
       linejoin_type="miter"
       unit="px"
       offset="-3"
       miter_limit="4"
       attempt_force_join="false"
       update_on_knot_move="true" /></defs><g
     inkscape:label="Layer 1"
     inkscape:groupmode="layer"
     id="layer1"><path
       id="path7"
       style="fill:#06c200;fill-opacity:1;stroke:#000000;stroke-width:0.5;stroke-dasharray:none;stroke-opacity:1"
       d="M 15.101196,0.63762163 C 11.592395,1.0624872 8.2181555,2.5938366 5.6625885,5.0468718 2.5009875,8.0092429 0.62029551,12.274227 0.54587251,16.605936 c -0.101477,4.29321 1.57409599,8.591071 4.56048999,11.679635 2.961422,3.106947 7.1820955,4.968453 11.4769475,5.037894 4.298771,0.112244 8.60207,-1.56854 11.695132,-4.556245 3.107577,-2.961235 4.966689,-7.182439 5.038598,-11.476908 0.06847,-1.727409 -0.171473,-3.304564 -0.655036,-5.006104 C 31.388646,7.8058531 27.968476,3.9329801 23.812133,2.0438716 21.06561,0.77701848 18.077971,0.32241199 15.101196,0.63762163 Z"
       inkscape:label="green-circle" /><path
       id="rect7"
       style="fill:#c20000;fill-opacity:1;stroke:#000000;stroke-width:0.499999;stroke-dasharray:none;stroke-opacity:1"
       d="m 34.873347,8.8236433 c 2.70367,2.7036697 5.407341,5.4073407 8.111012,8.1110117 -2.828427,2.828427 -5.656855,5.656854 -8.485282,8.485282 2.606996,2.606996 5.213992,5.213991 7.820988,7.820987 2.828427,-2.828428 5.656854,-5.656854 8.485281,-8.485281 2.828427,2.828426 5.656855,5.656854 8.485282,8.485281 2.606243,-2.606827 5.211981,-5.214161 7.818225,-7.820988 C 64.280426,22.591509 61.451999,19.763082 58.623572,16.934654 61.451999,14.106227 64.280426,11.2778 67.108853,8.4493731 64.502778,5.8432985 61.896703,3.2372232 59.290628,0.63114796 56.462201,3.4595751 53.633774,6.2880022 50.805346,9.1164293 47.976919,6.2880022 45.148492,3.4595751 42.320065,0.63114796 39.713238,3.2373922 37.105904,5.8431295 34.499077,8.4493738 34.623834,8.57413 34.74859,8.6988863 34.873347,8.8236433 Z"
       inkscape:label="red-x" /><path
       id="rect8"
       style="fill:#f56500;fill-opacity:1;stroke:#000000;stroke-width:0.499999;stroke-dasharray:none;stroke-opacity:1"
       d="m 68.798828,32.810547 c 10.583985,0 21.167969,0 31.751952,0 0,-10.583984 0,-21.167969 0,-31.7519532 -10.583983,0 -21.167968,-10e-8 -31.751952,0 0,10.5839842 0,21.1679692 0,31.7519532 z"
       inkscape:label="orange-square" /><path
       id="rect8-8"
       style="fill:#f500ef;fill-opacity:1;stroke:#000000;stroke-width:0.499999;stroke-dasharray:none;stroke-opacity:1"
       d="M 34.972656,50.804688 C 40.25,56.082031 45.527344,61.359375 50.804688,66.636719 56.082031,61.359375 61.359375,56.082031 66.636719,50.804688 61.359375,45.527344 56.082031,40.25 50.804688,34.972656 45.527344,40.25 40.25,45.527344 34.972656,50.804688 Z"
       inkscape:label="purple-diamond" /><path
       id="path8"
       style="fill:#f1df00;fill-opacity:1;stroke:#000000;stroke-width:0.499999;stroke-dasharray:none;stroke-opacity:1"
       d="m 9.115519,50.960728 c -2.606494,5.241484 -5.212987,10.482966 -7.819481,15.724448 10.425973,0 20.851947,0 31.27792,0 C 27.360971,56.202212 22.147985,45.719246 16.934998,35.236281 14.328505,40.477764 11.722011,45.719246 9.115519,50.960728 Z"
       inkscape:transform-center-y="-5.5266874"
       inkscape:label="yellow-triangle" /><path
       style="fill:#ffffff;fill-opacity:1;stroke-width:1"
       d="m 85.39307,67.516887 c -0.374206,-0.246677 -1.035973,-1.103917 -1.035973,-1.341964 0,-0.05024 -0.293993,-0.148521 -0.445632,-0.148997 -0.04706,-1.47e-4 -0.165885,-0.0355 -0.264063,-0.0786 -0.09821,-0.0431 -0.254106,-0.09198 -0.346523,-0.108533 -0.152558,-0.02756 -0.1694,-0.04661 -0.182828,-0.207879 -0.0079,-0.09764 0.0079,-0.299096 0.03516,-0.447617 0.108986,-0.589503 -0.256521,-0.821709 -0.939383,-0.596783 -0.345004,0.113636 -0.525824,0.218256 -0.754786,0.436672 -0.07564,0.07213 -0.201075,0.157503 -0.278772,0.189689 -0.09254,0.03833 -0.181954,0.138824 -0.259391,0.291621 -0.12712,0.250874 -0.195483,0.277932 -0.386296,0.15291 -0.102068,-0.06691 -0.148214,-0.07088 -0.277784,-0.02404 -0.292302,0.105698 -0.385435,0.07473 -0.696812,-0.231877 -0.189348,-0.186423 -0.332153,-0.288061 -0.404759,-0.288061 -0.144347,0 -0.609734,-0.159941 -0.768973,-0.264289 -0.11908,-0.07802 -0.132032,-0.07564 -0.391172,0.07269 -0.241654,0.138258 -0.281925,0.147581 -0.409431,0.09481 -0.1628,-0.06748 -0.310754,0.0023 -0.463267,0.218427 -0.242436,0.343529 -0.225401,0.332029 -0.360665,0.243399 -0.06759,-0.04434 -0.22708,-0.214741 -0.354416,-0.378776 -0.127325,-0.164029 -0.329716,-0.395464 -0.449749,-0.514283 -0.120032,-0.11883 -0.268292,-0.280201 -0.329454,-0.358612 -0.119217,-0.152819 -0.179358,-0.166259 -1.089039,-0.243468 -0.52631,-0.04469 -1.003448,-0.193443 -1.332278,-0.415408 -0.284216,-0.191855 -0.327936,-0.284182 -0.225322,-0.475911 0.06283,-0.117436 -0.0558,-0.327391 -0.326416,-0.577811 -0.175478,-0.162368 -0.183167,-0.182135 -0.173097,-0.445734 0.0056,-0.151707 -8.84e-4,-0.305593 -0.01486,-0.341975 -0.02925,-0.07621 -0.480402,-0.255522 -0.704692,-0.280076 -0.127869,-0.01396 -0.15959,-0.04377 -0.200077,-0.188158 -0.05704,-0.203423 -0.293175,-0.465648 -0.419253,-0.465648 -0.0491,0 -0.140934,0.05569 -0.204024,0.123752 -0.08506,0.09186 -0.185957,0.133427 -0.390696,0.161212 -0.340455,0.04616 -0.368898,0.03946 -0.922223,-0.219414 -0.246394,-0.115269 -0.511046,-0.20958 -0.588119,-0.20958 h -0.14013 v -0.356038 c 0,-0.195813 0.02143,-1.64872 0.04764,-3.228671 0.02619,-1.579951 0.09027,-5.929678 0.142386,-9.666059 0.05205,-3.736383 0.106038,-7.268722 0.11976,-7.849644 0.01372,-0.580922 0.02529,-1.515317 0.02563,-2.076435 l 6.02e-4,-1.020213 h 5.020856 5.020867 l -0.03062,0.139459 c -0.0169,0.0767 -0.01259,0.150633 0.009,0.164288 0.02212,0.01365 0.219584,0.04939 0.43885,0.07942 0.421589,0.05773 0.5943,0.113453 0.750851,0.24229 0.05285,0.04346 0.236458,0.128166 0.408092,0.188238 0.524587,0.183604 0.730245,0.323719 1.169468,0.796786 0.420637,0.453038 0.421963,0.453955 0.654543,0.453955 0.189531,0 0.271866,-0.02954 0.440778,-0.158144 0.306263,-0.233163 0.309892,-0.234447 0.510332,-0.180476 0.206689,0.05566 0.547144,0.41668 0.432204,0.45832 -0.03448,0.01249 -0.278716,0.04282 -0.542767,0.06737 -0.552894,0.05144 -0.743887,0.110892 -0.744818,0.231822 -3.62e-4,0.04686 -0.01315,0.131733 -0.02835,0.1886 -0.04967,0.185299 0.133642,0.183846 0.55049,-0.0043 0.208356,-0.09408 0.410464,-0.171045 0.449125,-0.171045 0.242821,0 0.856787,0.21131 1.093858,0.376479 0.68657,0.478333 1.383018,0.441045 1.878085,-0.100549 l 0.185492,-0.202923 0.396514,0.132996 c 0.218076,0.07315 0.423211,0.132339 0.455838,0.131535 0.07565,-0.0018 0.284591,-0.319233 0.328332,-0.498749 0.02223,-0.09129 0.107627,-0.184988 0.254979,-0.279932 0.192706,-0.124143 0.252791,-0.139377 0.461589,-0.117022 0.132031,0.01414 0.375941,0.08189 0.542018,0.150584 0.711316,0.294168 1.649089,0.335516 2.146548,0.09465 0.418652,-0.202712 1.102386,-0.781424 1.360316,-1.151367 0.379899,-0.544894 0.579852,-0.698477 1.185243,-0.910384 0.694588,-0.243137 1.033842,-0.424291 1.260049,-0.672837 0.227602,-0.250092 1.203876,-0.755275 1.625533,-0.841146 0.661268,-0.134669 1.144257,-0.311226 1.551567,-0.567176 0.225969,-0.141994 0.447877,-0.278089 0.49315,-0.302436 0.07315,-0.03933 0.795388,-0.183593 0.930526,-0.185863 0.03436,-5.79e-4 0.06272,0.236001 0.08188,0.683257 0.0161,0.37628 0.140539,3.21495 0.276549,6.308156 0.26906,6.119673 0.26925,5.880505 -0.005,5.912565 -0.0885,0.01032 -0.15,-0.025 -0.22914,-0.132027 -0.131198,-0.177459 -0.218478,-0.181793 -0.528188,-0.02623 -0.36815,0.184911 -0.392261,0.359371 -0.103203,0.74677 0.241551,0.323751 0.265209,0.416186 0.166553,0.650771 -0.166667,0.396319 -0.176442,0.612711 -0.04627,1.0247 l 0.120021,0.379929 -0.188111,0.436315 c -0.10343,0.239974 -0.275575,0.570901 -0.382486,0.735396 -0.16661,0.25637 -0.201608,0.357178 -0.245044,0.705905 -0.0279,0.223755 -0.0507,0.554816 -0.0507,0.735692 0,0.402958 -0.187931,1.004377 -0.37534,1.201151 -0.115519,0.121299 -0.128765,0.171179 -0.128765,0.484876 0,0.330962 -0.009,0.362036 -0.180038,0.580821 -0.184155,0.236436 -0.213845,0.360273 -0.135672,0.565871 0.06759,0.177741 -0.02109,0.479225 -0.245441,0.834434 -0.135513,0.214571 -0.21304,0.402429 -0.241721,0.585702 -0.05387,0.344092 -0.118468,0.439051 -0.457279,0.672036 -0.309483,0.212824 -1.01734,0.881668 -1.092372,1.03218 -0.06271,0.125752 -0.424923,0.234952 -0.661723,0.199488 -0.206382,-0.0309 -0.318918,0.0168 -0.570767,0.241928 -0.235041,0.210119 -0.578706,0.271123 -0.721715,0.128113 -0.05738,-0.05736 -0.106946,-0.186955 -0.121734,-0.318203 -0.01372,-0.121782 -0.04911,-0.221211 -0.07871,-0.220953 -0.02961,2.58e-4 -0.163946,0.05177 -0.298596,0.114468 -0.238852,0.111222 -0.404147,0.283941 -0.492788,0.514927 -0.02415,0.06283 -0.121881,0.229882 -0.21725,0.371168 -0.09538,0.141285 -0.17338,0.28857 -0.17338,0.327299 0,0.04695 -0.02994,0.0609 -0.08971,0.04196 -0.132565,-0.04207 -0.399258,-0.04525 -0.521763,-0.0056 -0.06181,0.01974 -0.241858,0.23123 -0.424436,0.498617 l -0.317104,0.4644 0.0524,0.26074 c 0.07496,0.373504 0.07031,0.39851 -0.115667,0.615791 -0.09243,0.107966 -0.168039,0.238138 -0.168039,0.289263 0,0.09844 0.112388,0.217542 0.252053,0.267057 0.104677,0.03708 0.104223,0.164602 -0.0023,0.543481 -0.07894,0.282016 -0.09663,0.304096 -0.412754,0.516104 -0.305707,0.205 -0.35284,0.221489 -0.633177,0.221489 -0.166576,0 -0.316798,-0.02257 -0.333821,-0.05013 -0.01702,-0.02756 0.02597,-0.124773 0.0956,-0.216068 0.136181,-0.178541 0.265718,-0.455714 0.265718,-0.568567 0,-0.09946 -0.296793,-0.269518 -0.470275,-0.269518 -0.111028,0 -0.183441,-0.04389 -0.296839,-0.180038 -0.146457,-0.17583 -0.151662,-0.177792 -0.22302,-0.08404 -0.251009,0.329863 -0.497301,0.848746 -0.499059,1.051386 -4.76e-4,0.05546 -0.06691,0.198081 -0.147613,0.3169 -0.118899,0.175059 -0.141388,0.247925 -0.118524,0.384084 0.0601,0.357898 0.0609,0.355448 -0.150257,0.453593 -0.252223,0.117231 -0.290192,0.244863 -0.160248,0.538639 0.05364,0.121121 0.09742,0.262758 0.09742,0.314756 0,0.05194 0.03357,0.210024 0.07462,0.351185 0.08188,0.281652 0.03981,0.573002 -0.103317,0.716158 -0.09198,0.09198 -0.292652,0.09288 -0.451392,0.0023 -0.19401,-0.110915 -0.319339,-0.08404 -0.526096,0.112616 -0.212938,0.20256 -0.235336,0.308825 -0.129309,0.613523 0.03992,0.11486 0.05614,0.300909 0.0423,0.48613 l -0.02246,0.300069 h -0.523884 c -0.357058,0 -0.578763,0.02291 -0.696244,0.07201 -0.228089,0.09526 -0.347793,0.09039 -0.516943,-0.02109 z"
       id="path1"
       inkscape:label="ohio" /><text
       xml:space="preserve"
       style="font-style:normal;font-variant:normal;font-weight:bold;font-stretch:normal;font-size:18.4713px;line-height:1.28632ex;font-family:Rockwell;-inkscape-font-specification:'Rockwell, Bold';font-variant-ligatures:normal;font-variant-caps:normal;font-variant-numeric:normal;font-variant-east-asian:normal;text-align:start;writing-mode:lr-tb;direction:ltr;text-anchor:start;white-space:pre;inline-size:89.3488;display:inline;fill:#ffffff;fill-opacity:1;stroke:none;stroke-width:0.499999;stroke-dasharray:none;stroke-opacity:1"
       x="72.324768"
       y="49.245419"
       id="text9"
       transform="matrix(0.96749553,0,0,1.0335965,-3.2222119,44.987029)"><tspan
         x="72.324768"
         y="49.245419"
         id="tspan4"><tspan
           style="line-height:1.28632ex;fill:#020202;stroke-width:0.500001"
           id="tspan1">SB</tspan><tspan
           style="line-height:1.28632ex;fill:#020202;stroke-width:0.500001"
           id="tspan2">♥️</tspan><tspan
           style="line-height:1.28632ex;fill:#020202;stroke-width:0.500001"
           id="tspan3">
</tspan></tspan><tspan
         x="72.324768"
         y="61.125419"
         id="tspan7"><tspan
           style="line-height:1.28632ex;fill:#020202;stroke-width:0.500001"
           id="tspan5">29</tspan></tspan></text><path
       style="font-weight:bold;font-size:18.4713px;line-height:1.28632ex;font-family:Rockwell;-inkscape-font-specification:'Rockwell, Bold';white-space:pre;inline-size:28.1195;fill:#020202;stroke-width:0.500001"
       d="m 70.442114,52.272024 v -4.170862 h 1.943826 q 0.03295,1.143907 0.560086,1.689463 0.52714,0.536757 1.202536,0.536757 0.52714,0 0.889548,-0.38717 0.362408,-0.395967 0.362408,-0.923925 0,-0.563154 -0.354172,-0.941523 -0.354172,-0.387168 -1.293138,-0.879929 -1.985008,-1.029516 -2.701589,-1.812653 -0.708343,-0.783136 -0.708343,-2.111828 0,-1.60147 0.938966,-2.4814 0.938968,-0.879928 2.133268,-0.879928 1.367267,0 2.116793,1.135109 v -1.011919 h 1.935589 v 3.722098 h -1.935589 q -0.0906,-0.862329 -0.560086,-1.328692 -0.461246,-0.475162 -1.078988,-0.475162 -0.477719,0 -0.807182,0.272779 -0.329462,0.272778 -0.329462,0.712742 0,0.378369 0.271807,0.721542 0.271806,0.334372 1.589654,0.959122 1.268429,0.60715 1.943826,1.09991 0.683634,0.483962 1.078988,1.267098 0.395355,0.774337 0.395355,1.795053 0,1.812653 -0.988386,2.72778 -0.988387,0.915126 -2.339182,0.915126 -1.507288,0 -2.322707,-1.187904 v 1.038316 z m 8.714271,0 v -2.067832 h 1.408451 v -8.104144 h -1.408451 v -2.067832 h 5.23021 q 1.737912,0 2.586277,0.219983 0.848365,0.211182 1.466106,1.047114 0.617741,0.827133 0.617741,1.944643 0,1.786256 -1.614363,2.525395 2.059137,0.818333 2.059137,2.930162 0,1.214302 -0.642451,2.085431 -0.634215,0.86233 -1.64731,1.179104 -1.004859,0.307976 -2.825137,0.307976 z m 4.390081,-7.408999 h 0.840129 q 0.873074,0 1.284902,-0.316775 0.411828,-0.316774 0.411828,-1.11751 0,-0.73034 -0.403592,-1.029515 -0.395354,-0.299177 -1.391978,-0.299177 h -0.741289 z m 0,5.341167 h 0.840129 q 1.144881,0 1.597892,-0.351973 0.453009,-0.35197 0.453009,-1.240698 0,-0.932724 -0.494193,-1.302295 -0.485957,-0.378368 -1.556708,-0.378368 h -0.840129 z"
       id="path10"
       inkscape:label="text-sb" /><path
       style="font-weight:bold;font-size:18.4713px;line-height:1.28632ex;font-family:Rockwell;-inkscape-font-specification:'Rockwell, Bold';white-space:pre;inline-size:28.1195;fill:#020202;stroke-width:0.500001"
       d="m 80.364955,60.294795 -0.0794,2.855752 h -5.89542 q 0,-1.286502 0.191883,-1.993372 0.198499,-0.706869 0.641813,-1.371325 0.449931,-0.664458 1.250543,-1.456152 1.052045,-1.032029 1.382876,-1.5127 0.337449,-0.48774 0.337449,-1.095647 0,-0.452396 -0.251432,-0.742212 -0.251432,-0.296886 -0.628581,-0.296886 -0.54918,0 -0.813845,0.48774 -0.258049,0.480671 -0.297749,1.576318 l -1.687241,-0.08482 q 0,-1.420807 0.396998,-2.141813 0.396998,-0.721008 1.078511,-1.046167 0.681514,-0.32516 1.482127,-0.32516 1.316709,0 2.064388,0.777556 0.754296,0.777556 0.754296,1.936822 0,0.622044 -0.231582,1.152197 -0.224965,0.523083 -0.575647,0.883585 -0.344065,0.353436 -1.224077,1.024961 -1.323326,1.010823 -1.660775,1.604594 -0.337447,0.59377 -0.396998,1.046166 h 2.679737 v -1.279433 z m 1.614458,0.339297 1.568142,-0.16258 q 0.277898,1.258227 1.058662,1.258227 1.230693,0 1.402726,-2.799202 -0.72783,0.614976 -1.713708,0.614976 -1.025579,0 -1.753408,-0.819968 -0.721213,-0.827038 -0.721213,-2.254912 0,-1.442014 0.780762,-2.38215 0.780763,-0.940136 2.170256,-0.940136 1.548292,0 2.381988,1.173403 0.833695,1.166335 0.833695,3.873643 0,5.08239 -3.387716,5.08239 -1.104977,0 -1.819574,-0.664457 -0.707978,-0.671525 -0.800612,-1.979234 z m 4.02953,-3.117293 v -0.106031 q 0,-1.13099 -0.337449,-1.915615 -0.330831,-0.784625 -1.018961,-0.784625 -0.430082,0 -0.701363,0.445327 -0.264666,0.43826 -0.264666,1.187541 0,0.692732 0.284516,1.159266 0.284515,0.466533 0.873395,0.466533 0.542564,0 1.164528,-0.452396 z"
       id="path11"
       inkscape:label="text-29" /><path
       style="font-weight:bold;font-size:12.6849px;line-height:1.28632ex;font-family:Rockwell;-inkscape-font-specification:'Rockwell, Bold';stroke-width:0.5"
       d="m 95.942935,43.094126 q 0.670019,-0.119016 1.181347,0.02204 0.511328,0.136648 0.863972,0.458432 0.357043,0.317377 0.555404,0.753769 0.198367,0.431984 0.242441,0.908048 0.04405,0.476064 -0.06611,0.921273 -0.163095,0.652384 -0.542188,1.269505 -0.379091,0.61712 -0.872783,1.168121 -0.489287,0.546592 -1.005028,1.000616 -0.511328,0.454025 -0.952128,0.784625 -0.436395,0.335008 -0.705282,0.515736 -0.290928,0.193952 -0.581855,0 -0.264482,-0.180728 -0.705282,-0.515736 -0.436388,-0.3306 -0.952129,-0.784625 -0.511328,-0.454024 -1.00502,-1.000616 -0.489294,-0.551001 -0.868378,-1.168121 -0.37909,-0.617121 -0.546591,-1.269505 -0.110204,-0.445209 -0.06611,-0.921273 0.04405,-0.476064 0.24244,-0.908048 0.19836,-0.436392 0.550997,-0.753769 0.35705,-0.321784 0.868378,-0.458432 0.511328,-0.141057 1.181346,-0.02204 0.335009,0.06171 0.625937,0.260072 0.290928,0.193952 0.506923,0.423169 0.215988,0.224807 0.335009,0.392312 0.123419,0.163096 0.123419,0.163096 0,0 0.119015,-0.163096 0.123426,-0.167505 0.339421,-0.392312 0.215988,-0.229217 0.50251,-0.423169 0.290928,-0.19836 0.630343,-0.260072 z"
       id="text11"
       aria-label="♥️"
       inkscape:label="text-heart" /><path
       id="rect16"
       style="fill:#ffffff;stroke-width:0.499999"
       d="M 67.576375 -16.779561 L 68.630294 -12.973677 L 99.906959 -12.973863 L 98.547979 -17.881371 L 71.554076 -17.881059 L 67.576375 -16.779561 z M 69.802128 -8.7419852 L 71.161107 -3.8344775 L 102.43777 -3.8346633 L 101.07879 -8.742171 L 69.802128 -8.7419852 z M 72.33294 0.39721454 L 73.691919 5.3047223 L 100.77171 5.3047557 L 104.66973 4.225323 L 103.6096 0.39702876 L 72.33294 0.39721454 z "
       transform="rotate(15.478389)" /></g><g
     inkscape:groupmode="layer"
     id="layer2"
     inkscape:label="Layer 2" /></svg>
